<svg width="90" height="25" viewBox="0 0 90 25" fill="none" xmlns="http://www.w3.org/2000/svg">
<path fill-rule="evenodd" clip-rule="evenodd" d="M44.9872 5.03919L30.0028 5.00513L30.0199 10.0102L40.0294 10.0443V14.9728L30.0199 15.0068L30.0028 25H25.0024V0.017053H44.9872L44.9872 5.03919ZM47.4832 24.9744V19.9779L47.4918 19.9693L47.5003 19.9608H47.5173H47.5343L47.5854 19.9693L47.628 19.9779L60.0057 19.9693H60.1335L60.2613 19.9608L60.3891 19.9439L60.5168 19.9183L60.6361 19.8928L60.7554 19.8587L60.8661 19.8246L60.9853 19.7736L61.0961 19.7225L61.1983 19.6714L61.3091 19.6118L61.4113 19.5438L61.505 19.4756L61.5987 19.3991L61.6924 19.3224L61.7776 19.2374L61.8628 19.1522L61.9395 19.0586L62.0162 18.9649L62.0843 18.8713L62.1524 18.7691L62.212 18.667L62.2632 18.5564L62.3143 18.4457L62.3569 18.3351L62.3994 18.2159L62.4335 18.0967L62.4591 17.9776L62.4847 17.8499L62.5017 17.7307L62.5102 17.603V17.4668V17.3392L62.5017 17.2114L62.4847 17.0923L62.4591 16.9646L62.4335 16.8454L62.3994 16.7262L62.3569 16.6071L62.3143 16.4965L62.2632 16.3858L62.212 16.2751L62.1524 16.1729L62.0843 16.0708L62.0162 15.9772L61.9395 15.8836L61.8628 15.79L61.7776 15.7048L61.6924 15.6197L61.5987 15.5431L61.505 15.4664L61.4113 15.3984L61.3091 15.3303L61.1983 15.2707L61.0961 15.2196L60.9853 15.1685L60.8661 15.1175L60.7554 15.0835L60.6361 15.0494L60.5168 15.0238L60.3891 14.9983L60.2613 14.9813L60.1335 14.9728H60.0057L55.0052 15.0324L54.6133 15.0153L54.2301 14.9898L53.8552 14.9388L53.4889 14.8791L53.1226 14.794L52.7648 14.6919L52.4155 14.5727L52.0748 14.4365L51.7426 14.2833L51.4189 14.1215L51.1037 13.9428L50.797 13.747L50.4988 13.5343L50.2177 13.3129L49.9451 13.0746L49.681 12.8277L49.434 12.5638L49.1955 12.2915L48.974 12.0106L48.7695 11.7126L48.5736 11.4062L48.3862 11.0913L48.2243 10.7678L48.071 10.4359L47.9347 10.0954L47.8155 9.74638L47.7217 9.38887L47.6366 9.03135L47.5684 8.65681L47.5173 8.28226L47.4918 7.89921L47.4832 7.51622L47.4918 7.12464L47.5173 6.74158L47.5684 6.36704L47.6366 6.001L47.7217 5.63505L47.8155 5.27754L47.9347 4.92855L48.071 4.58806L48.2243 4.25609L48.3862 3.93257L48.5736 3.61764L48.7695 3.31122L48.974 3.01332L49.1955 2.73237L49.434 2.46001L49.681 2.1961L49.9451 1.94929L50.2177 1.71092L50.4988 1.48966L50.797 1.28536L51.1037 1.08957L51.4189 0.9023L51.7426 0.74058L52.0748 0.587371L52.4155 0.451193L52.7648 0.340482L53.1226 0.238368L53.4889 0.15321L53.8552 0.085158L54.2301 0.0340632L54.6133 0.00852114L55.0052 0L67.4766 0.0170316V5.01362H55.0052H54.8775L54.7497 5.02214L54.6219 5.03917L54.4941 5.06471L54.3749 5.09027L54.2556 5.12425L54.1448 5.16683L54.0256 5.20941L53.9148 5.26051L53.8126 5.31153L53.7019 5.37113L53.5996 5.43926L53.506 5.50731L53.4122 5.58396L53.3185 5.66052L53.2333 5.74568L53.1482 5.83076L53.0715 5.92444L52.9948 6.01803L52.9267 6.1117L52.8586 6.21382L52.7989 6.32453L52.7478 6.42664L52.6967 6.53727L52.6541 6.65649L52.6115 6.76712L52.5774 6.88627L52.5518 7.00549L52.5263 7.13315L52.5093 7.26082L52.5008 7.38847V7.51622V7.64387L52.5093 7.77154L52.5263 7.89069L52.5518 8.01842L52.5774 8.13756L52.6115 8.25671L52.6541 8.37593L52.6967 8.48656L52.7478 8.59719L52.7989 8.70789L52.8586 8.81001L52.9267 8.91212L52.9948 9.0058L53.0715 9.10792L53.1482 9.19307L53.2333 9.27816L53.3185 9.36332L53.4122 9.43988L53.506 9.51652L53.5996 9.58465L53.7019 9.6527L53.8126 9.71231L53.9148 9.77192L54.0256 9.81442L54.1448 9.86552L54.2556 9.89958L54.3749 9.93364L54.4941 9.96763L54.6219 9.98466L54.7497 10.0017L54.8775 10.0102L55.0052 10.0187L60.0057 9.95912L60.3976 9.96763L60.7809 9.99319L61.1557 10.0443L61.522 10.1124L61.8883 10.189L62.2461 10.2912L62.5954 10.4103L62.9361 10.5465L63.2684 10.6997L63.5921 10.8614L63.9073 11.0402L64.214 11.236L64.5121 11.4488L64.7932 11.6701L65.0658 11.9084L65.3299 12.1553L65.5769 12.4191L65.8154 12.6916L66.0369 12.9724L66.2414 13.2703L66.4373 13.5767L66.6248 13.8918L66.7866 14.2152L66.9399 14.5472L67.0762 14.8877L67.1955 15.2366L67.2892 15.5942L67.3744 15.9602L67.4425 16.3262L67.4937 16.7007L67.5192 17.0838L67.5278 17.4668L67.5192 17.8584L67.4937 18.2414L67.4425 18.6159L67.3744 18.982L67.2892 19.348L67.1955 19.7055L67.0762 20.0545L66.9399 20.395L66.7866 20.7269L66.6248 21.0504L66.4373 21.3653L66.2414 21.6718L66.0369 21.9697L65.8154 22.2506L65.5769 22.523L65.3299 22.7869L65.0658 23.0337L64.7932 23.272L64.5121 23.4934L64.214 23.7062L63.9073 23.902L63.5921 24.0807L63.2684 24.2425L62.9361 24.3957L62.5954 24.5318L62.2461 24.651L61.8883 24.7532L61.522 24.8297L61.1557 24.8979L60.7809 24.949L60.3976 24.9744L60.0057 24.983L47.4832 24.9744ZM80.0758 5.01362H90V0L80.0758 0.00851045V0L79.5561 0.00851045L79.0535 0.0510948L78.5509 0.1107L78.0569 0.204304L77.5713 0.31493L77.0942 0.451182L76.6342 0.604392L76.1742 0.783154L75.7312 0.987384L75.3053 1.20872L74.8879 1.44709L74.479 1.70241L74.0872 1.98335L73.7038 2.28125L73.346 2.59619L72.9967 2.92815L72.6645 3.27715L72.3493 3.63467L72.0511 4.01772L71.7786 4.4093L71.5144 4.80931L71.276 5.23495L71.0545 5.66052L70.85 6.10319L70.6711 6.56282L70.5178 7.02245L70.3815 7.49918L70.2708 7.98435L70.1855 8.47805L70.1174 8.97174L70.0834 9.48246L70.0663 9.99319V10.0102V14.9557V14.9813L70.0834 15.492L70.1174 16.0027L70.1855 16.4965L70.2708 16.9902L70.3815 17.4753L70.5178 17.952L70.6711 18.4116L70.85 18.8713L71.0545 19.3139L71.276 19.7396L71.5144 20.1651L71.7786 20.5652L72.0511 20.9568L72.3493 21.3398L72.6645 21.6973L72.9967 22.0463L73.346 22.3783L73.7038 22.6933L74.0872 22.9912L74.479 23.272L74.8879 23.5274L75.3053 23.7657L75.7312 23.9871L76.1742 24.1914L76.6342 24.3701L77.0942 24.5233L77.5713 24.6595L78.0569 24.7702L78.5509 24.8638L79.0535 24.9234L79.5561 24.9659L80.0758 24.9744V24.9659L90 24.9744V19.9608H80.0758L79.8117 19.9523L79.5647 19.9354L79.3091 19.9013L79.0621 19.8587L78.8235 19.8076L78.585 19.7396L78.355 19.6629L78.125 19.5693L77.9035 19.4671L77.6906 19.3565L77.4776 19.2374L77.2731 19.1096L77.0772 18.9649L76.8898 18.8202L76.7023 18.667L76.532 18.4968L76.3701 18.3265L76.2083 18.1393L76.0635 17.952L75.9186 17.7562L75.7909 17.5519L75.6716 17.3477L75.5609 17.1263L75.4587 16.905L75.3734 16.6837L75.2883 16.4454L75.2201 16.207L75.169 15.9687L75.1264 15.7218L75.0924 15.475L75.0753 15.2196L75.0668 14.9557V10.0102L75.0753 9.75489L75.0924 9.49949L75.1264 9.25269L75.169 9.0058L75.2201 8.76743L75.2883 8.52914L75.3734 8.29077L75.4587 8.06945L75.5609 7.84819L75.6716 7.62685L75.7909 7.42255L75.9186 7.21824L76.0635 7.02245L76.2083 6.83525L76.3701 6.64798L76.532 6.47774L76.7023 6.3075L76.8898 6.15421L77.0772 6.001L77.2731 5.86482L77.4776 5.73717L77.6906 5.61802L77.9035 5.50731L78.125 5.4052L78.355 5.31153L78.585 5.23495L78.8235 5.16684L79.0621 5.11582L79.3091 5.06472L79.5647 5.03917L79.8117 5.01363L80.0758 5.01362ZM20.0019 14.9813L19.9849 15.492L19.9508 16.0027L19.8827 16.5049L19.7974 16.9987L19.6867 17.4754L19.5504 17.952L19.397 18.4202L19.2182 18.8713L19.0138 19.3139L18.7922 19.7481L18.5537 20.1651L18.2896 20.5652L18.017 20.9568L17.7189 21.3398L17.4037 21.6973L17.0715 22.0463L16.7222 22.3783L16.3644 22.6933L15.9811 22.9912L15.5892 23.2721L15.1888 23.5275L14.7629 23.7657L14.337 23.9871L13.894 24.1914L13.434 24.3701L12.974 24.5233L12.4969 24.6595L12.0113 24.7702L11.5258 24.8638L11.0232 24.9234L10.5121 24.9659L10.001 24.9745L9.48131 24.9659L8.97871 24.9234L8.47612 24.8638L7.98204 24.7702L7.49642 24.6595L7.02791 24.5233L6.5594 24.3701L6.10786 24.1914L5.66492 23.9871L5.23051 23.7657L4.81306 23.5275L4.40413 23.2721L4.01233 22.9912L3.63749 22.6933L3.27118 22.3783L2.93043 22.0463L2.59821 21.6973L2.28303 21.3398L1.98482 20.9568L1.70373 20.5652L1.44813 20.1651L1.20114 19.7481L0.979627 19.3139L0.783687 18.8713L0.604791 18.4202L0.44294 17.952L0.315179 17.4754L0.19594 16.9987L0.110717 16.5049L0.0511345 16.0027L0.00852242 15.492L0 14.9813V5.34576e-05H4.99195V14.9813L5.00047 15.2367L5.01752 15.492L5.05161 15.7389L5.09415 15.9857L5.1538 16.2326L5.22198 16.4709L5.29861 16.7007L5.39235 16.9306L5.48603 17.1519L5.59674 17.3646L5.71606 17.569L5.85234 17.7733L5.98862 17.9691L6.14195 18.1648L6.29528 18.3436L6.46565 18.5138L6.63603 18.6841L6.81492 18.8373L7.00234 18.9905L7.19828 19.1267L7.40274 19.2544L7.61573 19.3736L7.82871 19.4842L8.05015 19.5864L8.28017 19.68L8.5102 19.7566L8.74868 19.8247L8.98723 19.8758L9.23423 19.9268L9.48983 19.9523L9.74535 19.9779H10.0009H10.2565L10.5121 19.9523L10.7591 19.9268L11.0061 19.8758L11.2532 19.8247L11.4832 19.7566L11.7217 19.68L11.9432 19.5864L12.1647 19.4842L12.3862 19.3736L12.5906 19.2544L12.7951 19.1267L12.991 18.9905L13.1785 18.8373L13.3658 18.6841L13.5362 18.5138L13.7065 18.3436L13.8599 18.1648L14.0048 17.9691L14.1496 17.7733L14.2773 17.569L14.3966 17.3646L14.5074 17.1519L14.6095 16.9306L14.6948 16.7007L14.7799 16.4709L14.8481 16.2326L14.8992 15.9857L14.9418 15.7389L14.9759 15.492L14.9929 15.2367L15.0014 14.9813V5.34576e-05H20.0019L20.0019 14.9813Z" fill="white"/>
</svg>
